<?xml version="1.0" encoding="UTF-8"?>
<svg xmlns="http://www.w3.org/2000/svg" xmlns:xlink="http://www.w3.org/1999/xlink" width="35pt" height="35pt" viewBox="0 0 35 35" version="1.1">
<g id="surface1">
<path style=" stroke:none;fill-rule:nonzero;fill:rgb(0%,0%,0%);fill-opacity:1;" d="M 17.5 0 C 7.835938 0 0 7.835938 0 17.5 C 0 27.164062 7.835938 35 17.5 35 C 27.164062 35 35 27.164062 35 17.5 C 35 7.835938 27.164062 0 17.5 0 Z M 17.5 33.832031 C 8.480469 33.832031 1.167969 26.519531 1.167969 17.5 C 1.167969 8.480469 8.480469 1.167969 17.5 1.167969 C 26.519531 1.167969 33.832031 8.480469 33.832031 17.5 C 33.832031 26.519531 26.519531 33.832031 17.5 33.832031 Z M 17.5 33.832031 "/>
<path style=" stroke:none;fill-rule:nonzero;fill:rgb(0%,0%,0%);fill-opacity:1;" d="M 25.667969 15.167969 L 9.332031 15.167969 C 8.6875 15.167969 8.167969 15.6875 8.167969 16.332031 L 8.167969 18.667969 C 8.167969 19.3125 8.6875 19.832031 9.332031 19.832031 L 25.667969 19.832031 C 26.3125 19.832031 26.832031 19.3125 26.832031 18.667969 L 26.832031 16.332031 C 26.832031 15.6875 26.3125 15.167969 25.667969 15.167969 Z M 25.667969 18.667969 L 9.332031 18.667969 L 9.332031 16.332031 L 25.667969 16.332031 Z M 25.667969 18.667969 "/>
<path style=" stroke:none;fill-rule:nonzero;fill:rgb(0%,0%,0%);fill-opacity:1;" d="M 25.667969 9.332031 L 9.332031 9.332031 C 8.6875 9.332031 8.167969 9.855469 8.167969 10.5 L 8.167969 12.832031 C 8.167969 13.476562 8.6875 14 9.332031 14 L 25.667969 14 C 26.3125 14 26.832031 13.476562 26.832031 12.832031 L 26.832031 10.5 C 26.832031 9.855469 26.3125 9.332031 25.667969 9.332031 Z M 25.667969 12.832031 L 9.332031 12.832031 L 9.332031 10.5 L 25.667969 10.5 Z M 25.667969 12.832031 "/>
<path style=" stroke:none;fill-rule:nonzero;fill:rgb(0%,0%,0%);fill-opacity:1;" d="M 25.667969 21 L 9.332031 21 C 8.6875 21 8.167969 21.523438 8.167969 22.167969 L 8.167969 24.5 C 8.167969 25.144531 8.6875 25.667969 9.332031 25.667969 L 25.667969 25.667969 C 26.3125 25.667969 26.832031 25.144531 26.832031 24.5 L 26.832031 22.167969 C 26.832031 21.523438 26.3125 21 25.667969 21 Z M 25.667969 24.5 L 9.332031 24.5 L 9.332031 22.167969 L 25.667969 22.167969 Z M 25.667969 24.5 "/>
</g>
</svg>
